<svg width="20" height="20" viewBox="0 0 20 20" fill="none" xmlns="http://www.w3.org/2000/svg">
<path d="M10.0025 9.81166C12.9192 9.79416 14.425 8.28666 14.4792 5.31499C14.4292 2.44333 12.84 0.851662 9.99751 0.833328C7.12084 0.850828 5.52084 2.55499 5.52084 5.31499C5.52084 8.2 7.12167 9.79416 10.0025 9.81166ZM9.99751 1.66666C12.3767 1.68249 13.6042 2.91499 13.6458 5.31499C13.6 7.79999 12.4408 8.96416 10.0025 8.97833C7.56084 8.96416 6.40167 7.8025 6.35417 5.32249C6.40001 2.8775 7.59334 1.68166 9.99751 1.66666ZM9.99751 11.9117C5.61501 11.9392 3.25667 14.3008 3.17667 18.7425C3.17568 18.7972 3.18548 18.8516 3.2055 18.9025C3.22553 18.9535 3.25539 19 3.29339 19.0393C3.33139 19.0787 3.37677 19.1102 3.42695 19.1321C3.47713 19.1539 3.53112 19.1657 3.58584 19.1667H3.59334C3.70256 19.1667 3.80742 19.1238 3.88535 19.0473C3.96328 18.9708 4.00804 18.8667 4.01001 18.7575C4.08167 14.7367 6.04167 12.7692 9.99667 12.745C13.9042 12.77 15.9208 14.7933 15.9892 18.7575C15.9933 18.9875 16.2017 19.1783 16.4133 19.1667C16.4681 19.1657 16.5221 19.1539 16.5722 19.1321C16.6224 19.1102 16.6678 19.0787 16.7058 19.0393C16.7438 19 16.7737 18.9535 16.7937 18.9025C16.8137 18.8516 16.8235 18.7972 16.8225 18.7425C16.7467 14.3658 14.325 11.9392 9.99751 11.9117Z" fill="#2C2C2C"/>
</svg>
