<svg width="20" height="20" viewBox="0 0 20 20" fill="none" xmlns="http://www.w3.org/2000/svg">
<g clip-path="url(#clip0_1_26)">
<path d="M13.7492 18.7383C12.6725 19.0217 11.4325 19.1667 10 19.1667C8.5675 19.1667 7.3275 19.0217 6.25084 18.7383C6.25334 15.9442 7.20084 15 10 15C12.7992 15 13.7467 15.945 13.7492 18.7383ZM10 6.66668C8.67584 6.66668 8.33334 7.00918 8.33334 8.33334C8.33334 9.65751 8.67584 10 10 10C11.3242 10 11.6667 9.65751 11.6667 8.33334C11.6667 7.00918 11.3242 6.66668 10 6.66668ZM19.1667 10C19.1667 14.19 17.9917 16.8042 15.3983 18.1225C15.215 14.8183 13.5292 13.3333 10 13.3333C6.47084 13.3333 4.785 14.8183 4.60167 18.1225C2.00917 16.8042 0.833336 14.1892 0.833336 10C0.833336 3.57501 3.575 0.833344 10 0.833344C16.425 0.833344 19.1667 3.57501 19.1667 10ZM13.3333 8.33334C13.3333 6.09084 12.2425 5.00001 10 5.00001C7.7575 5.00001 6.66667 6.09084 6.66667 8.33334C6.66667 10.5758 7.7575 11.6667 10 11.6667C12.2425 11.6667 13.3333 10.5758 13.3333 8.33334Z" fill="#9C2BFF"/>
</g>
<defs>
<clipPath id="clip0_1_26">
<rect width="20" height="20" fill="white"/>
</clipPath>
</defs>
</svg>
