<svg width="20" height="20" viewBox="0 0 20 20" fill="none" xmlns="http://www.w3.org/2000/svg">
<g clip-path="url(#clip0_1_35)">
<path d="M1.06917 6.41418C0.991793 6.33589 0.930692 6.24306 0.889394 6.14103C0.848096 6.03901 0.827418 5.92981 0.828556 5.81975C0.829694 5.70969 0.852624 5.60094 0.896022 5.49979C0.939421 5.39864 1.00243 5.30709 1.0814 5.23042C1.16038 5.15376 1.25376 5.09349 1.35616 5.05312C1.45855 5.01274 1.56793 4.99305 1.67798 4.99518C1.78803 4.99732 1.89656 5.02123 1.99732 5.06554C2.09807 5.10985 2.18905 5.17368 2.265 5.25334L5.6725 8.76251C5.92834 9.02084 6.28 9.16668 6.6525 9.16751C7.02334 9.16751 7.3725 9.02334 7.635 8.76084L15.2417 1.08001C15.3186 1.00207 15.4101 0.94008 15.511 0.89759C15.6119 0.855101 15.7201 0.83295 15.8296 0.832408C15.9391 0.831866 16.0476 0.852943 16.1489 0.894432C16.2502 0.93592 16.3424 0.997003 16.42 1.07418C16.4978 1.15112 16.5597 1.24265 16.6022 1.34354C16.6446 1.44442 16.6667 1.55269 16.6673 1.66213C16.6678 1.77158 16.6468 1.88006 16.6053 1.98136C16.5639 2.08266 16.5029 2.1748 16.4258 2.25251L8.81667 9.93501C8.5322 10.2206 8.19398 10.447 7.82152 10.6012C7.44907 10.7554 7.04977 10.8343 6.64667 10.8333C6.24413 10.8337 5.84554 10.7539 5.47414 10.5987C5.10273 10.4434 4.76592 10.2159 4.48334 9.92918L1.06917 6.41418ZM19.755 6.07668C19.6776 5.99933 19.5856 5.93801 19.4845 5.89623C19.3833 5.85445 19.2749 5.83302 19.1655 5.83318C19.056 5.83333 18.9477 5.85506 18.8467 5.89713C18.7456 5.9392 18.6539 6.00078 18.5767 6.07834L7.67084 17.0117C7.51539 17.1677 7.33051 17.2913 7.12692 17.3753C6.92332 17.4594 6.70507 17.5021 6.48482 17.5011C6.26458 17.5001 6.04672 17.4553 5.8439 17.3695C5.64109 17.2836 5.45734 17.1583 5.30334 17.0008L1.41584 13.1533C1.25869 12.9977 1.04618 12.911 0.825044 12.912C0.603907 12.9131 0.392262 13.002 0.236668 13.1592C0.0810746 13.3163 -0.00572242 13.5288 -0.00462846 13.75C-0.00353449 13.9711 0.0853609 14.1827 0.242502 14.3383L4.125 18.18C4.43355 18.4926 4.80113 18.7409 5.20641 18.9102C5.61169 19.0796 6.04659 19.1668 6.48584 19.1667C6.92493 19.1679 7.35992 19.0822 7.76569 18.9144C8.17147 18.7466 8.54 18.5001 8.85 18.1892L19.7567 7.25501C19.9127 7.09852 20.0001 6.88647 19.9998 6.6655C19.9995 6.44453 19.9114 6.23273 19.755 6.07668Z" fill="#2E9100"/>
</g>
<defs>
<clipPath id="clip0_1_35">
<rect width="20" height="20" fill="white"/>
</clipPath>
</defs>
</svg>
