<svg width="24" height="24" viewBox="0 0 24 24" fill="none" xmlns="http://www.w3.org/2000/svg">
<g clip-path="url(#clip0_1_130)">
<path d="M14 7.01498V0.473977C14.9251 0.823312 15.7653 1.36529 16.465 2.06398L19.949 5.54998C20.6485 6.24886 21.1909 7.08887 21.54 8.01398H15C14.448 8.01398 14 7.56598 14 7.01498ZM21.976 10.015H15C13.346 10.015 12 8.66898 12 7.01498V0.0379771C11.839 0.0269771 11.678 0.0139771 11.515 0.0139771H7C5.67431 0.0158295 4.40347 0.543346 3.46616 1.48084C2.52885 2.41834 2.00159 3.68929 2 5.01498V19.015C2 21.772 4.243 24.015 7 24.015H17C19.757 24.015 22 21.772 22 19.015V10.5C22 10.337 21.987 10.176 21.976 10.015ZM15.707 16.895C15.6143 16.9882 15.5042 17.0621 15.3829 17.1126C15.2615 17.163 15.1314 17.189 15 17.189C14.8686 17.189 14.7385 17.163 14.6171 17.1126C14.4958 17.0621 14.3857 16.9882 14.293 16.895L13 15.602V20C13 20.2652 12.8946 20.5196 12.7071 20.7071C12.5196 20.8946 12.2652 21 12 21C11.7348 21 11.4804 20.8946 11.2929 20.7071C11.1054 20.5196 11 20.2652 11 20V15.602L9.707 16.895C9.61416 16.9878 9.50393 17.0615 9.38263 17.1117C9.26132 17.162 9.1313 17.1878 9 17.1878C8.8687 17.1878 8.73868 17.162 8.61737 17.1117C8.49607 17.0615 8.38584 16.9878 8.293 16.895C8.20016 16.8021 8.12651 16.6919 8.07626 16.5706C8.02601 16.4493 8.00015 16.3193 8.00015 16.188C8.00015 16.0567 8.02601 15.9267 8.07626 15.8054C8.12651 15.684 8.20016 15.5738 8.293 15.481L9.907 13.867C10.4628 13.3128 11.2156 13.0016 12.0005 13.0016C12.7854 13.0016 13.5382 13.3128 14.094 13.867L15.708 15.481C15.8009 15.5738 15.8747 15.684 15.925 15.8053C15.9753 15.9266 16.0012 16.0566 16.0012 16.188C16.0012 16.3193 15.9753 16.4494 15.925 16.5707C15.8747 16.692 15.8009 16.8022 15.708 16.895H15.707Z" fill="#6F7FE3"/>
</g>
<defs>
<clipPath id="clip0_1_130">
<rect width="24" height="24" fill="white"/>
</clipPath>
</defs>
</svg>
