<svg width="20" height="20" viewBox="0 0 20 20" fill="none" xmlns="http://www.w3.org/2000/svg">
<g clip-path="url(#clip0_1_59)">
<path d="M19.755 6.07669C19.6776 5.99935 19.5856 5.93803 19.4845 5.89625C19.3833 5.85446 19.2749 5.83304 19.1655 5.83319C19.056 5.83335 18.9477 5.85508 18.8467 5.89715C18.7456 5.93922 18.6539 6.0008 18.5767 6.07836L7.67084 17.0117C7.5154 17.1677 7.33051 17.2913 7.12692 17.3754C6.92332 17.4594 6.70507 17.5021 6.48482 17.5011C6.26458 17.5001 6.04672 17.4554 5.8439 17.3695C5.64109 17.2836 5.45734 17.1583 5.30334 17.0009L1.41584 13.1534C1.25869 12.9978 1.04618 12.911 0.825044 12.9121C0.603907 12.9132 0.392262 13.0021 0.236668 13.1592C0.0810746 13.3163 -0.00572242 13.5288 -0.00462846 13.75C-0.00353449 13.9711 0.0853609 14.1828 0.242502 14.3384L4.125 18.18C4.43355 18.4927 4.80113 18.7409 5.20641 18.9103C5.61169 19.0796 6.04659 19.1668 6.48584 19.1667C6.92493 19.1679 7.35992 19.0822 7.76569 18.9144C8.17147 18.7466 8.54 18.5002 8.85 18.1892L19.7567 7.25503C19.9127 7.09853 20.0001 6.88648 19.9998 6.66551C19.9995 6.44454 19.9114 6.23274 19.755 6.07669Z" fill="#00C9D0"/>
</g>
<defs>
<clipPath id="clip0_1_59">
<rect width="20" height="20" fill="white"/>
</clipPath>
</defs>
</svg>
