<svg width="42" height="42" viewBox="0 0 42 42" fill="none" xmlns="http://www.w3.org/2000/svg">
<path d="M27.906 3.14739C30.4296 3.14394 33.2635 3.03301 35.4573 4.48232C35.5094 4.51776 35.5095 4.51808 35.5605 4.55281C35.81 4.72069 36.0501 4.89745 36.2834 5.0873C36.3165 5.11472 36.3487 5.14143 36.3808 5.16805C36.5725 5.32611 36.7489 5.48838 36.9095 5.67818C36.9533 5.73109 36.9532 5.73141 36.9961 5.78328C37.2635 6.10229 37.5347 6.41809 37.7504 6.77535C37.7727 6.81458 37.7947 6.85262 37.8164 6.8907C38.4337 7.97074 38.7397 9.09096 38.8796 10.3213C38.8851 10.3699 38.8851 10.3703 38.8905 10.418C38.9755 11.162 39.0123 11.9047 39.0116 12.6534V13.466C39.0115 13.683 39.012 13.9001 39.0122 14.1171C39.0126 14.5433 39.0128 14.9695 39.0129 15.3957C39.0129 15.7453 39.0128 16.0951 39.0129 16.4448C39.0132 17.4373 39.0135 18.4298 39.0135 19.4223V19.7472C39.0135 20.6158 39.0136 21.4844 39.0142 22.353C39.0148 23.2502 39.0155 24.1474 39.0154 25.0446C39.0154 25.5473 39.015 26.0505 39.0154 26.5532C39.0158 26.9838 39.0163 27.4146 39.0161 27.8452C39.0159 28.066 39.0158 28.2871 39.0161 28.5079C39.0201 30.9412 38.9721 33.3415 37.5773 35.4324C37.5471 35.476 37.5176 35.5183 37.4882 35.5606C37.4012 35.6869 37.3124 35.8106 37.2191 35.9323C35.8233 37.6149 33.7435 38.4859 31.6089 38.6977C31.5682 38.7017 31.5682 38.7021 31.5282 38.706C29.7921 38.8151 29.7921 38.8148 28.0514 38.806C27.846 38.8058 27.6404 38.8059 27.4349 38.806C27.0312 38.8062 26.6274 38.8067 26.2237 38.8066C25.8933 38.8065 25.5626 38.8059 25.2323 38.806H19.7938C18.8924 38.8062 17.9909 38.8067 17.0894 38.8066C16.993 38.8066 16.8967 38.806 16.8003 38.806C16.7278 38.806 16.7277 38.806 16.6568 38.806C16.3251 38.8059 15.9932 38.8065 15.6615 38.8066C15.2542 38.8067 14.8468 38.8062 14.4394 38.806C14.2309 38.8059 14.0224 38.8059 13.8139 38.806C13.0153 38.8065 12.2166 38.8124 11.419 38.7656C11.3854 38.7636 11.3528 38.7618 11.3203 38.7598C9.64314 38.6594 7.90282 38.3834 6.48684 37.4159C6.42027 37.3687 6.35373 37.3215 6.28625 37.2756C5.61013 36.8184 5.038 36.2611 4.55718 35.6004C4.51355 35.5389 4.51344 35.5389 4.47067 35.4786C4.0982 34.9617 3.77273 34.3912 3.57409 33.7841C3.54923 33.7041 3.52428 33.6239 3.49783 33.5444C2.97216 31.1057 2.97206 31.1056 2.97872 28.5976C2.97931 28.3817 2.97952 28.1656 2.97936 27.9497C2.97903 27.525 2.97937 27.1003 2.98 26.6756C2.98076 26.1771 2.98061 25.6783 2.98064 25.1798C2.98069 24.2895 2.98159 23.399 2.98257 22.5087C2.98352 21.645 2.98433 20.7813 2.98449 19.9176V19.1108C2.98463 18.2799 2.98463 17.4487 2.98513 16.6178C2.98531 16.3186 2.98566 16.0191 2.98577 15.72C2.98595 15.2423 2.9865 14.7646 2.98705 14.287C2.98733 14.068 2.98762 13.8485 2.98769 13.6294C2.98772 13.4275 2.98737 13.2252 2.98769 13.0232C2.98783 12.9488 2.98823 12.8745 2.98834 12.8002C2.98794 12.1175 3.00929 11.4364 3.06396 10.7558C3.06894 10.698 3.0687 10.6977 3.07357 10.6411C3.09441 10.3965 3.11539 10.1528 3.1556 9.91048C3.17531 9.80791 3.19544 9.70564 3.21008 9.60222C3.40156 8.1751 4.08084 6.77399 5.06667 5.72368C7.41588 3.27604 10.5935 3.14341 13.7915 3.14739C13.9946 3.14766 14.1978 3.1476 14.4009 3.14739C14.8008 3.14695 15.2008 3.14651 15.6006 3.14675C15.928 3.14694 16.2558 3.14746 16.5831 3.14739H27.906Z" fill="white"/>
<path d="M23.707 11.6895C23.7426 11.7015 23.7781 11.7136 23.8147 11.726C25.0135 12.1383 26.0927 12.6895 27.0507 13.5304C27.144 13.6172 27.144 13.6172 27.2343 13.6582C27.2343 13.6853 27.2343 13.7123 27.2343 13.7402C27.2572 13.7504 27.28 13.7605 27.3036 13.771C27.5131 13.8843 27.658 14.0427 27.8106 14.2215C27.8961 14.3209 27.9842 14.4176 28.0726 14.5144C29.4459 16.0432 30.1579 17.8821 30.4188 19.9021C30.4307 19.994 30.444 20.0857 30.4578 20.1773C30.5519 20.9504 30.4765 21.7528 30.3515 22.5176C30.3426 22.5737 30.3426 22.5737 30.3336 22.631C30.2485 23.1567 30.1165 23.6557 29.9414 24.1582C29.9246 24.2072 29.9246 24.2072 29.9076 24.2572C29.7571 24.6954 29.5822 25.111 29.3648 25.5201C29.3292 25.5879 29.2954 25.6567 29.2617 25.7256C29.0467 26.154 28.7564 26.5276 28.4648 26.9063C28.4326 26.9482 28.4004 26.9901 28.3672 27.0333C27.9223 27.5931 27.4195 28.0961 26.8652 28.5469C26.8425 28.5654 26.8198 28.5838 26.7964 28.6029C26.2802 29.0187 25.7436 29.3738 25.1425 29.6543C25.0992 29.6753 25.0558 29.6963 25.0112 29.7179C22.6981 30.8203 20.2121 30.8701 17.8008 30.0645C17.1387 29.8287 16.525 29.5324 15.955 29.1211C15.9153 29.0983 15.8755 29.0754 15.8346 29.0519C15.8066 29.0341 15.7787 29.0164 15.75 28.998C15.75 28.971 15.75 28.9439 15.75 28.916C15.777 28.9025 15.8041 28.8889 15.832 28.875C15.7749 28.8775 15.7749 28.8775 15.7166 28.8801C15.5859 28.875 15.5859 28.875 15.4629 28.793C15.4629 28.7659 15.4629 28.7388 15.4629 28.7109C15.4201 28.6971 15.4201 28.6971 15.3765 28.6831C15.2305 28.6164 15.1187 28.5232 14.9989 28.4187C14.964 28.3887 14.964 28.3887 14.9283 28.358C14.534 28.0155 14.534 28.0155 14.3965 27.8496C14.3965 27.8225 14.3965 27.7955 14.3965 27.7676C14.3694 27.7676 14.3423 27.7676 14.3144 27.7676C14.3144 27.7405 14.3144 27.7134 14.3144 27.6855C14.2738 27.672 14.2332 27.6585 14.1914 27.6445C14.1914 27.6175 14.1914 27.5904 14.1914 27.5625C14.1643 27.5625 14.1372 27.5625 14.1093 27.5625C14.0427 27.5061 14.0427 27.5061 13.9863 27.4395C13.9863 27.4124 13.9863 27.3853 13.9863 27.3574C13.9592 27.3574 13.9322 27.3574 13.9043 27.3574C13.8334 27.2706 13.8334 27.2706 13.7556 27.1575C13.7167 27.1018 13.7167 27.1018 13.6771 27.045C13.6172 26.9473 13.6172 26.9473 13.6172 26.8652C13.5766 26.8517 13.5359 26.8382 13.4941 26.8242C13.434 26.7571 13.434 26.7571 13.3736 26.673C13.3522 26.6433 13.3308 26.6135 13.3087 26.5829C13.1677 26.3813 13.0406 26.1771 12.9199 25.9629C12.897 25.9265 12.8742 25.8901 12.8507 25.8527C12.8007 25.7645 12.7742 25.6928 12.7558 25.5938C12.7288 25.5938 12.7017 25.5938 12.6738 25.5938C12.5897 25.4145 12.506 25.2352 12.4226 25.0557C12.3924 24.9907 12.3618 24.926 12.3311 24.8612C12.3164 24.8297 12.3018 24.7982 12.2867 24.7657C12.2741 24.7389 12.2614 24.7121 12.2484 24.6845C12.2226 24.6094 12.2226 24.6094 12.2226 24.4453C12.1956 24.4318 12.1685 24.4182 12.1406 24.4043C12.0993 24.3084 12.0993 24.3084 12.0562 24.1811C12.0404 24.1347 12.0246 24.0882 12.0084 24.0403C11.9919 23.9904 11.9755 23.9405 11.9586 23.889C11.9418 23.8382 11.9251 23.7873 11.9079 23.7349C11.8002 23.4012 11.7067 23.0771 11.6604 22.7288C11.6465 22.6264 11.6303 22.5246 11.6143 22.4226C11.3265 20.4908 11.6224 18.3994 12.5097 16.6523C12.5309 16.6071 12.5309 16.6071 12.5525 16.561C12.6794 16.2917 12.8439 16.0428 13.0019 15.791C13.0252 15.7528 13.0486 15.7146 13.0726 15.6752C13.3368 15.2473 13.6437 14.8573 13.9845 14.4881C14.0622 14.4032 14.136 14.3161 14.2093 14.2273C14.244 14.1884 14.2787 14.1495 14.3144 14.1094C14.3415 14.1094 14.3686 14.1094 14.3965 14.1094C14.406 14.0862 14.4155 14.063 14.4253 14.039C14.748 13.4705 15.5813 13.0171 16.1191 12.6738C16.1544 12.6511 16.1896 12.6285 16.226 12.6051C16.7993 12.2488 17.413 11.9974 18.0468 11.7715C18.095 11.7541 18.1432 11.7367 18.1928 11.7188C18.5457 11.6006 18.9063 11.5502 19.2733 11.4973C19.3787 11.4815 19.483 11.4616 19.5875 11.4408C20.9393 11.1971 22.401 11.2441 23.707 11.6895Z" fill="white"/>
<path d="M33.6682 7.71817C33.7703 7.80787 33.8663 7.90054 33.9609 7.99807C33.9869 8.02371 34.0129 8.04935 34.0397 8.07577C34.5398 8.60133 34.7256 9.26718 34.7134 9.97419C34.6989 10.2776 34.605 10.5478 34.4941 10.8281C34.4802 10.8646 34.4664 10.901 34.4521 10.9385C34.3269 11.2243 34.1235 11.4538 33.9274 11.693C32.9367 12.9034 32.2562 14.3186 31.8691 15.8321C31.8616 15.8608 31.8541 15.8895 31.8464 15.9191C31.6899 16.5292 31.5933 17.1481 31.4986 17.7701C31.4935 17.8034 31.4885 17.8367 31.4832 17.871C31.4737 17.9339 31.4642 17.9969 31.4549 18.0598C31.4346 18.1942 31.4116 18.3256 31.3769 18.457C31.368 18.5355 31.3604 18.6142 31.3538 18.6929C31.3504 18.7333 31.347 18.7737 31.3434 18.8153C31.3409 18.846 31.3385 18.8766 31.3359 18.9082C31.3088 18.9082 31.2818 18.9082 31.2539 18.9082C31.0785 18.1566 31.0283 17.9033 31.0283 17.9033L30.9257 17.5957C30.9257 17.5957 30.8721 17.4998 30.8258 17.3932C30.8085 17.3536 30.7912 17.3139 30.7734 17.273C30.7193 17.1413 30.6684 17.0086 30.6181 16.8754C30.5126 16.5962 30.3944 16.327 30.2285 16.0781C30.2285 16.0375 30.2285 15.9969 30.2285 15.9551C30.2014 15.9551 30.1743 15.9551 30.1464 15.9551C30.0644 15.8321 30.0644 15.8321 30.0644 15.668C30.0373 15.668 30.0103 15.668 29.9824 15.668C29.938 15.611 29.938 15.611 29.8904 15.5316C29.8729 15.503 29.8554 15.4743 29.8374 15.4447C29.8193 15.4144 29.8011 15.384 29.7824 15.3527C29.6669 15.1608 29.5517 14.9794 29.4082 14.8067C29.3896 14.7754 29.3709 14.7441 29.3518 14.7118C29.2058 14.4704 29.0352 14.2656 28.8339 14.0684C28.7848 14.0193 28.7356 13.9702 28.6865 13.921C28.6473 13.8817 28.6473 13.8817 28.6072 13.8417C28.5269 13.7613 28.4465 13.6809 28.3661 13.6005C28.3407 13.5751 28.3153 13.5498 28.2891 13.5236C28.2297 13.4642 28.1705 13.4046 28.1114 13.345C27.8189 13.055 27.5215 12.7862 27.1844 12.5494C27.062 12.4629 26.9432 12.3726 26.8242 12.2816C26.5993 12.1123 26.3672 11.959 26.1269 11.8125C26.0952 11.793 26.0634 11.7734 26.0307 11.7533C25.9286 11.6934 25.8262 11.6411 25.7192 11.5906C25.6817 11.5729 25.6442 11.5551 25.6056 11.5369C25.567 11.5187 25.5284 11.5005 25.4886 11.4818C25.4116 11.4455 25.3347 11.4091 25.2577 11.3727C25.2069 11.3488 25.2069 11.3488 25.1549 11.3243C25.0945 11.2955 25.0349 11.265 24.9764 11.2325C24.886 11.1863 24.886 11.1863 24.7324 11.1973C24.7324 11.1702 24.7324 11.1431 24.7324 11.1153C24.7062 11.111 24.6799 11.1068 24.6529 11.1024C24.5153 11.0715 24.3855 11.0281 24.2522 10.9826C24.1262 10.9405 23.9991 10.9046 23.8711 10.8692C23.9937 10.7874 24.0456 10.7724 24.1864 10.7512C24.496 10.699 24.7981 10.6208 25.1015 10.541C25.1451 10.5298 25.1888 10.5185 25.2337 10.5069C27.1449 9.98827 28.8755 9.10803 30.4361 7.89809C31.4173 7.14108 32.6178 6.91997 33.6682 7.71817Z" fill="url(#paint0_linear_1_107)"/>
<path d="M10.664 23.2559C10.7948 23.3807 10.8761 23.4833 10.8947 23.666C10.8993 23.7079 10.8993 23.7079 10.904 23.7506C10.9092 23.818 10.9101 23.8856 10.9101 23.9531C10.9372 23.9531 10.9643 23.9531 10.9922 23.9531C10.9988 24.0319 11.0055 24.1107 11.0122 24.1895C11.029 24.2853 11.029 24.2853 11.0888 24.3731C11.1924 24.547 11.2465 24.7362 11.31 24.9277C11.367 25.0953 11.4296 25.2387 11.5254 25.3887C11.5564 25.454 11.5864 25.5197 11.6151 25.5861C11.6363 25.6347 11.6363 25.6347 11.6579 25.6843C11.6683 25.7085 11.6787 25.7328 11.6894 25.7578C11.6488 25.7781 11.6488 25.7781 11.6074 25.7988C11.6328 25.8098 11.6582 25.8208 11.6843 25.8322C11.7715 25.8809 11.7715 25.8809 11.8535 26.0039C11.9177 26.2857 11.9177 26.2857 11.8535 26.4141C11.9347 26.4344 11.9347 26.4344 12.0175 26.4551C12.0175 26.4822 12.0175 26.5092 12.0175 26.5371C12.0482 26.5545 12.0788 26.5718 12.1103 26.5897C12.2431 26.673 12.2963 26.7534 12.379 26.8857C12.6157 27.2536 12.8632 27.5966 13.1602 27.9184C13.2369 28.0016 13.3106 28.0864 13.3839 28.1726C13.5137 28.3213 13.6503 28.4628 13.7889 28.6033C13.8204 28.6355 13.8204 28.6355 13.8525 28.6685C13.9595 28.7757 14.0548 28.8521 14.1914 28.916C14.2235 28.9566 14.2557 28.9972 14.2888 29.0391C14.568 29.3783 15.0063 29.6163 15.3763 29.844C15.4629 29.9004 15.4629 29.9004 15.5449 29.9824C15.6145 30.0124 15.6841 30.0422 15.7541 30.0711C15.8767 30.1252 15.989 30.1954 16.1037 30.2644C16.3318 30.3983 16.5604 30.5014 16.8098 30.5914C16.9398 30.6388 17.0662 30.6917 17.1932 30.7463C17.4055 30.836 17.6195 30.9063 17.8418 30.9668C17.8126 31.0469 17.8126 31.0469 17.7597 31.1309C17.671 31.1559 17.671 31.1559 17.57 31.1616C17.5365 31.164 17.503 31.1663 17.4685 31.1687C17.4299 31.1703 17.4299 31.1703 17.3906 31.1719C17.3906 31.199 17.3906 31.226 17.3906 31.2539C17.3631 31.2605 17.3357 31.2671 17.3074 31.2739C17.1804 31.3046 17.0535 31.3356 16.9266 31.3667C16.8834 31.3771 16.8403 31.3874 16.7958 31.3981C16.5415 31.4607 16.2976 31.5353 16.0526 31.6278C15.9387 31.6701 15.8235 31.7036 15.7064 31.7358C15.1216 31.9132 14.5678 32.2024 14.0273 32.4844C13.9968 32.5002 13.9663 32.5159 13.9348 32.5322C13.1118 32.9605 12.3381 33.4776 11.6122 34.055C11.1123 34.4446 10.605 34.7161 9.95908 34.712C9.92083 34.7118 9.88258 34.7116 9.84317 34.7113C9.13225 34.6989 8.54759 34.4224 8.04192 33.9239C7.54851 33.3878 7.28129 32.7111 7.28954 31.9811C7.34185 31.2675 7.66033 30.724 8.12747 30.1978C8.2788 30.0267 8.40671 29.8456 8.53122 29.6543C8.54832 29.6289 8.56542 29.6036 8.58303 29.5774C9.07121 28.8522 9.47021 28.0593 9.76169 27.2344C9.77805 27.1888 9.77805 27.1888 9.79474 27.1423C10.1271 26.2024 10.3108 25.2156 10.4755 24.2344C10.5112 24.0234 10.5526 23.8276 10.623 23.625C10.6313 23.5327 10.6313 23.5327 10.6256 23.4481C10.6247 23.3982 10.6239 23.3483 10.623 23.2969C10.6366 23.2833 10.6501 23.2698 10.664 23.2559Z" fill="url(#paint1_linear_1_107)"/>
<path d="M31.2129 23.2969C31.267 23.2969 31.3211 23.2969 31.3769 23.2969C31.3958 23.408 31.4146 23.519 31.4333 23.6301C31.4385 23.6605 31.4437 23.6909 31.449 23.7223C31.482 23.9183 31.5111 24.1146 31.5381 24.3115C31.6509 25.1076 31.8341 25.8932 32.0742 26.6602C32.0837 26.6912 32.0932 26.7223 32.103 26.7543C32.5055 28.0648 33.1439 29.321 34.0415 30.3631C34.2736 30.6375 34.4323 30.9273 34.5761 31.2539C34.591 31.2866 34.606 31.3193 34.6213 31.3529C34.8555 31.9722 34.7032 32.7157 34.4416 33.2988C34.1412 33.848 33.5993 34.3455 33.0175 34.5762C32.9882 34.5884 32.959 34.6006 32.9288 34.6132C32.4356 34.7831 31.7695 34.7787 31.2838 34.5911C30.9725 34.4357 30.6981 34.259 30.4233 34.0455C29.6351 33.4448 28.8051 32.907 27.9133 32.4733C27.7979 32.4171 27.684 32.3591 27.5702 32.2998C26.9869 32.0096 26.3741 31.7899 25.7578 31.582C25.8584 31.4756 25.9656 31.4044 26.0916 31.3295C27.1403 30.7061 28.1502 29.761 28.8339 28.752C28.8673 28.7054 28.9008 28.659 28.9344 28.6127C29.1442 28.3238 29.3453 28.0316 29.5312 27.7266C29.5543 27.6889 29.5773 27.6512 29.6011 27.6123C30.005 26.9364 30.3242 26.2219 30.5686 25.4734C30.6099 25.353 30.6611 25.2369 30.7104 25.1195C30.8712 24.7167 30.9478 24.2878 31.034 23.8642C31.0399 23.8359 31.0457 23.8076 31.0517 23.7784C31.0678 23.7003 31.0834 23.6222 31.0991 23.544C31.1308 23.4199 31.1308 23.4199 31.2129 23.2969Z" fill="url(#paint2_linear_1_107)"/>
<path d="M11.3498 7.72252C11.4505 7.80155 11.5495 7.88247 11.6482 7.96399C11.9736 8.23139 12.3224 8.46361 12.6738 8.69532C12.7013 8.71361 12.7289 8.7319 12.7572 8.75074C13.8294 9.4587 14.9888 9.93241 16.2011 10.3359C16.1454 10.5031 16.0372 10.5394 15.891 10.6205C15.6114 10.7808 15.3558 10.9626 15.1016 11.1604C15.0756 11.1806 15.0495 11.2008 15.0226 11.2216C14.9997 11.2397 14.9767 11.2577 14.9531 11.2763C14.8886 11.3203 14.8886 11.3203 14.7656 11.3613C14.7521 11.4019 14.7385 11.4425 14.7246 11.4844C14.6482 11.5513 14.6482 11.5513 14.5477 11.6262C14.3103 11.8111 14.0974 12.0157 13.8854 12.2285C13.8227 12.2915 13.7593 12.3538 13.696 12.4161C13.4587 12.6521 13.2442 12.8947 13.0479 13.1662C13.007 13.2221 12.9636 13.2763 12.9199 13.3301C12.8928 13.3301 12.8658 13.3301 12.8379 13.3301C12.8277 13.3588 12.8176 13.3876 12.8071 13.4172C12.7488 13.5514 12.679 13.664 12.5918 13.7813C12.5647 13.7813 12.5376 13.7813 12.5097 13.7813C12.5013 13.8134 12.4928 13.8456 12.4841 13.8787C12.4232 14.0392 12.3445 14.1723 12.2547 14.318C11.9964 14.7405 11.7587 15.1702 11.5664 15.627C11.5121 15.7502 11.4572 15.8732 11.4023 15.9961C11.3752 15.9961 11.3482 15.9961 11.3203 15.9961C11.3165 16.0407 11.3127 16.0854 11.3087 16.1313C11.2803 16.3584 11.2078 16.5692 11.1357 16.7857C11.1096 16.8653 11.0835 16.945 11.0575 17.0247C11.046 17.0596 11.0344 17.0944 11.0225 17.1303C10.9953 17.2166 10.972 17.3026 10.9511 17.3906C10.9241 17.3906 10.897 17.3906 10.8691 17.3906C10.8771 17.4116 10.8851 17.4325 10.8933 17.4541C10.9172 17.5968 10.8837 17.7117 10.8512 17.8521C10.8394 17.9039 10.8276 17.9557 10.8154 18.0091C10.8014 18.0684 10.8014 18.0684 10.7871 18.1289C10.6882 18.1044 10.6882 18.1044 10.582 18.0469C10.5411 17.9266 10.5411 17.9266 10.523 17.7828C10.5163 17.7355 10.5096 17.6882 10.5027 17.6395C10.5 17.5137 10.5 17.5137 10.582 17.3906C10.5549 17.3906 10.5279 17.3906 10.5 17.3906C10.4166 17.0724 10.3377 16.7569 10.2846 16.4319C10.1568 15.6921 9.88922 14.9635 9.59763 14.2734C9.58473 14.2428 9.57184 14.2122 9.55855 14.1806C9.19017 13.3128 8.73369 12.536 8.14926 11.7946C7.57075 11.0592 7.22099 10.3549 7.30075 9.39259C7.42952 8.64258 7.90162 8.02841 8.50558 7.59303C9.37674 7.01089 10.5212 7.10491 11.3498 7.72252Z" fill="url(#paint3_linear_1_107)"/>
<path d="M23.8301 14.6836C23.8571 14.6836 23.8842 14.6836 23.9121 14.6836C23.9446 15.3621 23.7626 15.9915 23.3121 16.5078C22.7857 17.068 22.152 17.3861 21.4512 17.6777C21.4108 17.6946 21.3704 17.7114 21.3287 17.7287C21.0775 17.8255 20.8175 17.8974 20.5591 17.9725C20.5221 17.9833 20.4852 17.9941 20.4472 18.0052C20.2486 18.0616 20.0567 18.1057 19.8515 18.1289C19.849 18.1555 19.8464 18.1821 19.8437 18.2095C19.7391 19.047 19.4516 19.8364 19.073 20.5848C18.4219 21.8826 18.2652 23.2555 18.7122 24.647C18.8473 25.0461 19.0254 25.4286 19.2209 25.8014C19.644 26.6362 19.8474 27.6366 19.5644 28.5469C19.3377 29.1267 18.9322 29.5894 18.457 29.9824C18.4338 30.0025 18.4105 30.0225 18.3865 30.0432C18.2831 30.1237 18.2223 30.147 18.0908 30.141C17.8617 30.102 17.6485 30.0077 17.4342 29.9209C17.3888 29.9026 17.3434 29.8844 17.2967 29.8655C16.8411 29.6781 16.4172 29.4587 16.0197 29.1667C15.9476 29.1143 15.9476 29.1143 15.8346 29.0519C15.8066 29.0341 15.7787 29.0164 15.75 28.998C15.75 28.971 15.75 28.9439 15.75 28.916C15.7714 28.9075 15.7928 28.899 15.8149 28.8902C16.5009 28.6031 16.9798 28.1514 17.3006 27.479C17.4579 27.0887 17.5867 26.6727 17.5957 26.25C17.5977 26.1967 17.5998 26.1434 17.6019 26.0885C17.6176 25.5157 17.5683 24.9415 17.3544 24.4059C17.0152 23.4832 17.0038 22.6306 17.4174 21.7327C17.6829 21.1894 18.047 20.7144 18.4309 20.2505C18.6216 20.0188 18.7899 19.7778 18.9492 19.5234C18.9755 19.4824 19.0019 19.4414 19.029 19.3991C19.2551 19.0409 19.4519 18.6691 19.6465 18.293C18.7885 18.4425 17.9127 19.0443 17.4102 19.7449C16.8916 20.5067 16.7774 21.2928 16.7523 22.192C16.7505 22.2516 16.7487 22.3112 16.7469 22.3707C16.7426 22.5154 16.7384 22.66 16.7344 22.8047C16.6409 22.6832 16.5718 22.5679 16.5088 22.4279C16.4923 22.3918 16.4758 22.3556 16.4588 22.3184C16.0387 21.2873 15.9583 20.13 16.3867 19.0901C16.535 18.7484 16.701 18.4214 16.9805 18.1699C17.0234 18.118 17.0661 18.0658 17.1086 18.0136C17.9443 17.051 19.3065 16.8689 20.4819 16.6334C21.465 16.4363 22.4256 16.24 23.2148 15.5859C23.2441 15.562 23.2734 15.538 23.3036 15.5134C23.5431 15.2966 23.7283 14.9888 23.8301 14.6836Z" fill="#9C2BFF"/>
<path d="M15.5859 23.7481C15.668 23.7891 15.668 23.7891 15.6928 23.8548C15.7992 24.5018 15.6451 25.1668 15.2639 25.7C15.1827 25.8042 15.0987 25.9045 15.0117 26.0039C14.9899 26.0297 14.968 26.0554 14.9455 26.0819C14.6213 26.4367 14.0253 26.8265 13.5351 26.8652C13.4887 26.8082 13.4426 26.7509 13.3967 26.6935C13.371 26.6616 13.3453 26.6297 13.3188 26.5969C13.2489 26.4974 13.2062 26.4053 13.166 26.291C13.1899 26.288 13.2138 26.2849 13.2384 26.2817C13.9955 26.1603 14.554 25.6345 14.9893 25.0337C15.2724 24.6327 15.4781 24.2286 15.5859 23.7481Z" fill="#9C2BFF"/>
<path d="M19.5875 11.4408C20.9393 11.1971 22.401 11.2441 23.707 11.6895C23.7426 11.7015 23.7781 11.7136 23.8147 11.726C25.0135 12.1383 26.0927 12.6895 27.0507 13.5304C27.144 13.6172 27.144 13.6172 27.2343 13.6582V13.7402C27.2572 13.7504 27.28 13.7605 27.3036 13.771C27.5131 13.8843 27.658 14.0427 27.8106 14.2215C27.8961 14.3209 27.9842 14.4176 28.0726 14.5144C29.4459 16.0432 30.1579 17.8821 30.4188 19.9021C30.4307 19.994 30.444 20.0857 30.4578 20.1773C30.5519 20.9504 30.4765 21.7528 30.3515 22.5176C30.3426 22.5737 30.3426 22.5737 30.3336 22.631C30.2485 23.1567 30.1165 23.6557 29.9414 24.1582C29.9246 24.2072 29.9246 24.2072 29.9076 24.2572C29.7571 24.6954 29.5822 25.111 29.3648 25.5201C29.3292 25.5879 29.2954 25.6567 29.2617 25.7256C29.0467 26.154 28.7564 26.5276 28.4648 26.9063C28.4326 26.9482 28.4004 26.9901 28.3672 27.0333C27.9223 27.5931 27.4195 28.0961 26.8652 28.5469C26.8425 28.5654 26.8198 28.5838 26.7964 28.6029C26.2802 29.0187 25.7436 29.3738 25.1425 29.6543C25.0982 29.6758 25.0539 29.6972 25.0082 29.7193C24.1223 30.1419 24.1223 30.1419 23.789 30.1054C23.684 29.9952 23.6839 29.9952 23.6332 29.9262C23.5809 29.8516 23.5809 29.8516 23.4917 29.7671C22.0323 28.3077 21.7465 26.129 21.7229 24.0506C21.7231 23.6628 21.7339 23.4471 21.9023 23.0917C21.9181 23.0558 21.934 23.0199 21.9503 22.9829C22.0523 22.7743 22.1446 22.6592 22.3535 22.5995C22.497 22.5585 22.5717 22.5802 22.6868 22.5817C22.7196 22.5819 22.7587 22.5917 22.8046 22.5995C23.8187 22.7732 24.274 22.7662 24.4003 22.6644C24.5193 22.6263 24.6212 22.5607 24.7044 22.4515C24.7731 22.3146 24.7898 22.2084 24.7614 22.0585C24.7452 21.9787 24.7335 21.8993 24.7258 21.8183C24.7262 21.7164 24.7752 21.6556 24.8397 21.5818C24.8822 21.5368 24.8822 21.5368 24.9357 21.4498C24.9738 21.351 24.9695 21.2899 24.9449 21.1877C24.8868 21.1422 24.8867 21.1422 24.8329 21.1207C24.8126 21.1137 24.7929 21.1069 24.7732 21.1001C24.7527 21.0931 24.7328 21.0863 24.7129 21.0795C24.6973 21.0742 24.6821 21.0691 24.6669 21.0639C24.8018 21.0068 24.9151 20.9565 25.0075 20.8385C25.0837 20.7176 25.0838 20.7176 25.0366 20.4426C25.0212 20.3555 25.0073 20.2705 25.0065 20.1819C25.0471 20.0559 25.1018 19.995 25.214 19.925C25.2882 19.8815 25.3603 19.8362 25.432 19.7887C25.4988 19.7314 25.5434 19.6994 25.5593 19.6118C25.5422 19.4893 25.5215 19.4151 25.4207 19.334C25.4042 19.3214 25.3881 19.3091 25.372 19.2969C24.9685 18.9574 24.593 18.5894 24.531 18.0402C24.5268 17.9976 24.5222 17.955 24.5175 17.9125C24.5136 17.8779 24.5136 17.8778 24.5098 17.8439C24.47 17.4729 24.757 16.8716 24.706 16.4809C24.7072 16.2919 24.7015 16.1031 24.6914 15.914C24.7297 15.8978 24.7298 15.8979 24.7689 15.8814C24.8846 15.8154 24.9156 15.7342 24.956 15.6103C25.0453 15.1867 24.9845 14.8129 24.7734 14.4374C24.7096 14.3488 24.6425 14.2719 24.5683 14.1913V14.1093C24.5443 14.0985 24.5203 14.0876 24.4955 14.0765C24.4009 14.0255 24.3341 13.9696 24.2555 13.8966C23.4143 13.1508 22.2421 12.7423 21.123 12.7148C21.0742 12.7135 21.0742 12.7136 21.0244 12.7123C19.5385 12.6792 18.0065 12.9805 16.8574 13.9863C16.8269 14.0109 16.7964 14.0356 16.765 14.061C15.4833 15.1264 15.0885 16.9553 14.9277 18.5299C14.8772 19.087 14.8578 19.6463 14.8403 20.2053C14.8273 20.5874 14.8021 20.9636 14.7485 21.3423C14.7435 21.377 14.7387 21.4118 14.7337 21.4475C14.6518 21.9848 14.4562 22.4763 14.2324 22.9687H14.1503C14.1401 22.9981 14.13 23.0276 14.1195 23.0578C13.8464 23.6775 13.1952 24.0756 12.5917 24.3222C12.4289 24.3755 12.3125 24.4043 12.1406 24.4043C11.7255 23.2183 11.7255 23.2181 11.6604 22.7288C11.6465 22.6264 11.6303 22.5246 11.6143 22.4226C11.3265 20.4908 11.6224 18.3994 12.5097 16.6523C12.5309 16.6071 12.5309 16.6071 12.5525 16.561C12.6794 16.2917 12.8439 16.0428 13.0019 15.791C13.0252 15.7528 13.0486 15.7146 13.0726 15.6752C13.3368 15.2473 13.6437 14.8573 13.9845 14.4881C14.0622 14.4032 14.136 14.3161 14.2093 14.2273C14.244 14.1884 14.2787 14.1495 14.3144 14.1094H14.3965C14.406 14.0862 14.4155 14.063 14.4253 14.039C14.748 13.4705 15.5813 13.0171 16.1191 12.6738C16.1544 12.6511 16.1896 12.6285 16.226 12.6051C16.7993 12.2488 17.413 11.9974 18.0468 11.7715C18.095 11.7541 18.1432 11.7367 18.1928 11.7188C18.5457 11.6006 18.9063 11.5502 19.2733 11.4973C19.3787 11.4815 19.483 11.4616 19.5875 11.4408Z" fill="#9C2BFF"/>
<defs>
<linearGradient id="paint0_linear_1_107" x1="34.6995" y1="7.212" x2="9.40954" y2="36.5632" gradientUnits="userSpaceOnUse">
<stop offset="0.3" stop-color="#9C2BFF"/>
<stop offset="0.7" stop-color="#9C2BFF" stop-opacity="0.3"/>
</linearGradient>
<linearGradient id="paint1_linear_1_107" x1="34.7371" y1="7.20398" x2="9.64549" y2="36.6855" gradientUnits="userSpaceOnUse">
<stop offset="0.295272" stop-color="#9C2BFF" stop-opacity="0.3"/>
<stop offset="0.704105" stop-color="#9C2BFF"/>
</linearGradient>
<linearGradient id="paint2_linear_1_107" x1="7.28935" y1="7.20398" x2="27.1954" y2="39.4126" gradientUnits="userSpaceOnUse">
<stop offset="0.3" stop-color="#9C2BFF" stop-opacity="0.3"/>
<stop offset="0.7" stop-color="#9C2BFF"/>
</linearGradient>
<linearGradient id="paint3_linear_1_107" x1="7.30079" y1="7.21876" x2="16.2012" y2="18.1289" gradientUnits="userSpaceOnUse">
<stop offset="0.3" stop-color="#9C2BFF"/>
<stop offset="0.7" stop-color="#9C2BFF" stop-opacity="0.3"/>
</linearGradient>
</defs>
</svg>
