<svg width="42" height="42" viewBox="0 0 42 42" fill="none" xmlns="http://www.w3.org/2000/svg">
<rect width="42" height="42" rx="21" fill="white"/>
<g clip-path="url(#clip0_1_123)">
<path d="M14.521 28.9H19.843L23.362 32.415C23.5512 32.6052 23.776 32.7561 24.0236 32.8591C24.2713 32.962 24.5368 33.015 24.805 33.015C24.9815 33.0148 25.1572 32.9922 25.328 32.948C25.6733 32.8609 25.9894 32.6843 26.2447 32.4361C26.5 32.1878 26.6853 31.8767 26.782 31.534L32.989 10.425L14.521 28.9ZM13.087 27.5L31.572 9.01202L10.478 15.233C10.1346 15.3307 9.82261 15.5165 9.57311 15.7719C9.32361 16.0274 9.14523 16.3436 9.05568 16.6893C8.96613 17.035 8.96852 17.3981 9.0626 17.7425C9.15668 18.087 9.3392 18.4009 9.59203 18.653L13.087 22.145V27.5Z" fill="#6F7FE3"/>
</g>
<defs>
<clipPath id="clip0_1_123">
<rect width="24" height="24" fill="white" transform="translate(9 9)"/>
</clipPath>
</defs>
</svg>
